<svg width="92" height="146" viewBox="0 0 92 146" fill="none" xmlns="http://www.w3.org/2000/svg">
<path d="M0 41.0625C0 35.0122 2.42321 29.2098 6.73654 24.9316C11.0499 20.6535 16.9 18.25 23 18.25H30.6636L30.6912 7.60113C30.6912 5.58518 31.4986 3.65181 32.9358 2.22632C34.373 0.800834 36.3223 0 38.3548 0H53.6912C55.7237 0 57.673 0.800834 59.1102 2.22632C60.5474 3.65181 61.3548 5.58518 61.3548 7.60113L61.3364 18.25H69C75.1 18.25 80.9501 20.6535 85.2635 24.9316C89.5768 29.2098 92 35.0122 92 41.0625V123.188C92 129.238 89.5768 135.04 85.2635 139.318C80.9501 143.597 75.1 146 69 146H23C16.9 146 11.0499 143.597 6.73654 139.318C2.42321 135.04 0 129.238 0 123.188L0 41.0625ZM8.7032 38.7812L8.7032 123.188C8.7032 129.119 13.2664 136.008 19.0992 136.802L20.2032 136.875H70.7572C76.7096 136.875 81.6132 132.385 82.202 126.637L82.2572 125.469V38.7812C82.2562 35.959 81.2004 33.2374 79.2938 31.1424C77.3872 29.0474 74.7653 27.7279 71.9348 27.4389L70.7572 27.375H20.2032C17.3562 27.3737 14.6099 28.4199 12.4958 30.3112C10.3816 32.2024 9.04994 34.8043 8.7584 37.6132L8.7032 38.7812ZM17.9308 120.14L17.9308 71.5035C17.9308 67.6071 20.8564 64.4042 24.6468 63.9297L25.6128 63.875H65.4212C67.2923 63.8736 69.0996 64.5496 70.5038 65.776C71.908 67.0025 72.8127 68.6951 73.048 70.5362L73.1032 71.4944V120.131C73.1069 121.988 72.4263 123.783 71.1896 125.177C69.9528 126.572 68.245 127.471 66.3872 127.704L65.412 127.75H25.6128C21.6936 127.75 18.4644 124.839 17.986 121.089L17.9308 120.14Z" fill="white"/>
</svg>
