<svg width="319" height="35" viewBox="0 0 319 35" fill="none" xmlns="http://www.w3.org/2000/svg">
<path d="M268.728 4.68237H286.486L284.169 5.45444L276.449 15.4913H268.728V4.68237Z" fill="url(#paint0_linear_147_777)"/>
<path opacity="0.9" d="M316.14 27.8443H278.449C277.344 27.8443 276.449 26.9489 276.449 25.8443V16.1322C276.449 15.7153 276.579 15.3089 276.821 14.9697L283.571 5.5199C283.946 4.9943 284.553 4.68237 285.199 4.68237H309.39C310.036 4.68237 310.642 4.9943 311.018 5.5199L317.768 14.9697C318.01 15.3089 318.14 15.7153 318.14 16.1322V25.8443C318.14 26.9489 317.245 27.8443 316.14 27.8443Z" fill="url(#paint1_linear_147_777)" stroke="#979797" stroke-width="0.1"/>
<path d="M274.246 3.9104H272.211C271.98 3.9104 271.778 4.06947 271.727 4.29546C270.803 8.42569 270.932 12.0877 271.731 15.8717C271.78 16.1008 271.983 16.2634 272.217 16.2634H274.282C274.601 16.2634 274.839 15.9672 274.774 15.6541C273.993 11.8758 273.802 8.32491 274.737 4.54781C274.816 4.22656 274.577 3.9104 274.246 3.9104Z" fill="url(#paint2_linear_147_777)"/>
<path d="M278.599 27.894H315.99C316.436 27.8941 316.822 28.2056 316.917 28.6421L317.828 32.8188C317.956 33.411 317.505 33.9712 316.899 33.9712H277.69C277.084 33.9712 276.632 33.411 276.761 32.8188L277.671 28.6421C277.766 28.2056 278.152 27.8941 278.599 27.894Z" fill="url(#paint3_linear_147_777)" stroke="#979797" stroke-width="0.1"/>
<path d="M58.7268 4.68237H257.919C257.919 4.68237 257.159 7.8918 257.159 10.0868C257.159 12.2818 257.919 15.4913 257.919 15.4913H58.7268C58.7268 15.4913 59.4871 12.2188 59.4871 10.0868C59.4871 7.95482 58.7268 4.68237 58.7268 4.68237Z" fill="url(#paint4_linear_147_777)"/>
<path d="M285.713 1.74281V4.18243C285.713 4.45857 285.937 4.68243 286.213 4.68243H308.375C308.652 4.68243 308.875 4.45857 308.875 4.18243V1.74281C308.875 1.64582 308.847 1.55092 308.794 1.46968L308.016 0.276915C307.924 0.135386 307.766 0.0500488 307.597 0.0500488H286.991C286.822 0.0500488 286.665 0.135386 286.573 0.276915L285.795 1.46968C285.742 1.55092 285.713 1.64582 285.713 1.74281Z" fill="url(#paint5_linear_147_777)" stroke="#979797" stroke-width="0.1"/>
<path d="M299.56 21.7177V27.7948H295.028V21.7177H299.56Z" fill="#AFAFAF" stroke="#979797" stroke-width="0.1"/>
<path d="M288.648 21.7177C288.614 21.7426 288.573 21.7714 288.529 21.8055C288.384 21.919 288.189 22.0815 287.994 22.2762C287.8 22.4709 287.604 22.6993 287.456 22.9452C287.309 23.1908 287.207 23.4569 287.207 23.7264V27.7948H282.675V23.7264C282.675 23.4815 282.767 23.2327 282.909 22.996C283.051 22.7595 283.242 22.5378 283.433 22.3466C283.624 22.1554 283.816 21.9963 283.959 21.8846C284.031 21.8288 284.09 21.7846 284.132 21.7548C284.153 21.7399 284.169 21.7282 284.18 21.7206C284.181 21.7197 284.183 21.7185 284.184 21.7177H288.648Z" fill="#AFAFAF" stroke="#979797" stroke-width="0.1"/>
<path d="M305.941 21.7177C305.975 21.7426 306.015 21.7714 306.059 21.8055C306.205 21.919 306.4 22.0815 306.594 22.2762C306.789 22.4709 306.985 22.6993 307.133 22.9452C307.28 23.1908 307.382 23.4569 307.382 23.7264V27.7948H311.914V23.7264C311.914 23.4815 311.821 23.2327 311.679 22.996C311.537 22.7595 311.347 22.5378 311.156 22.3466C310.965 22.1554 310.773 21.9963 310.63 21.8846C310.558 21.8288 310.498 21.7846 310.457 21.7548C310.436 21.7399 310.42 21.7282 310.409 21.7206C310.408 21.7197 310.406 21.7185 310.405 21.7177H305.941Z" fill="#AFAFAF" stroke="#979797" stroke-width="0.1"/>
<path d="M49.4621 4.68237H31.7046L34.0208 5.45444L41.7414 15.4913H49.4621V4.68237Z" fill="url(#paint6_linear_147_777)"/>
<path opacity="0.9" d="M2.05 27.8443H39.7414C40.846 27.8443 41.7414 26.9489 41.7414 25.8443V16.1322C41.7414 15.7153 41.6112 15.3089 41.3689 14.9697L34.619 5.5199C34.2436 4.9943 33.6375 4.68237 32.9916 4.68237H8.79987C8.15397 4.68237 7.54783 4.9943 7.17241 5.5199L0.422539 14.9697C0.180252 15.3089 0.0500069 15.7153 0.0500069 16.1322V25.8443C0.0500069 26.9489 0.945435 27.8443 2.05 27.8443Z" fill="url(#paint7_linear_147_777)" stroke="#979797" stroke-width="0.1"/>
<path d="M43.9442 3.9104H45.9789C46.2105 3.9104 46.4122 4.06947 46.4628 4.29546C47.3866 8.42569 47.2582 12.0877 46.4589 15.8717C46.4105 16.1008 46.2073 16.2634 45.973 16.2634H43.9084C43.5887 16.2634 43.3513 15.9672 43.4161 15.6541C44.197 11.8758 44.3876 8.32491 43.4533 4.54781C43.3739 4.22656 43.6133 3.9104 43.9442 3.9104Z" fill="url(#paint8_linear_147_777)"/>
<path d="M39.591 27.894H2.20041C1.75373 27.8941 1.36776 28.2056 1.27267 28.6421L0.362518 32.8188C0.233781 33.411 0.685237 33.9712 1.29123 33.9712H40.5002C41.1062 33.9712 41.5577 33.411 41.4289 32.8188L40.5188 28.6421C40.4237 28.2056 40.0377 27.8941 39.591 27.894Z" fill="url(#paint9_linear_147_777)" stroke="#979797" stroke-width="0.1"/>
<path d="M32.4767 1.74281V4.18243C32.4767 4.45857 32.2528 4.68243 31.9767 4.68243H9.81479C9.53864 4.68243 9.31479 4.45857 9.31479 4.18243V1.74281C9.31479 1.64582 9.343 1.55092 9.39598 1.46968L10.1739 0.276915C10.2662 0.135386 10.4237 0.0500488 10.5927 0.0500488H31.1988C31.3678 0.0500488 31.5253 0.135386 31.6176 0.276915L32.3955 1.46968C32.4485 1.55092 32.4767 1.64582 32.4767 1.74281Z" fill="url(#paint10_linear_147_777)" stroke="#979797" stroke-width="0.1"/>
<path d="M18.6299 21.7177V27.7948H23.1621V21.7177H18.6299Z" fill="#AFAFAF" stroke="#979797" stroke-width="0.1"/>
<path d="M29.5425 21.7177C29.5763 21.7426 29.6168 21.7714 29.6606 21.8055C29.8065 21.919 30.001 22.0815 30.1958 22.2762C30.3905 22.4709 30.5863 22.6993 30.7339 22.9452C30.8813 23.1908 30.9829 23.4569 30.9829 23.7264V27.7948H35.5151V23.7264C35.5151 23.4815 35.4228 23.2327 35.2808 22.996C35.1388 22.7595 34.9485 22.5378 34.7573 22.3466C34.5662 22.1554 34.3746 21.9963 34.231 21.8846C34.1592 21.8288 34.0998 21.7846 34.0581 21.7548C34.0374 21.7399 34.0213 21.7282 34.0103 21.7206C34.0089 21.7197 34.0075 21.7185 34.0063 21.7177H29.5425Z" fill="#AFAFAF" stroke="#979797" stroke-width="0.1"/>
<path d="M12.249 21.7177C12.2152 21.7426 12.1747 21.7714 12.1308 21.8055C11.985 21.919 11.7904 22.0815 11.5957 22.2762C11.401 22.4709 11.2051 22.6993 11.0576 22.9452C10.9102 23.1908 10.8086 23.4569 10.8086 23.7264V27.7948H6.27634V23.7264C6.27641 23.4815 6.36865 23.2327 6.51071 22.996C6.65264 22.7595 6.84293 22.5378 7.03415 22.3466C7.22526 22.1554 7.4169 21.9963 7.56052 21.8846C7.63226 21.8288 7.69164 21.7846 7.73337 21.7548C7.7541 21.7399 7.77013 21.7282 7.78122 21.7206C7.78257 21.7197 7.78393 21.7185 7.78513 21.7177H12.249Z" fill="#AFAFAF" stroke="#979797" stroke-width="0.1"/>
<path d="M269.613 3.9104H258.314C258.083 3.9104 257.881 4.06947 257.83 4.29546C256.907 8.42569 257.035 12.0877 257.834 15.8717C257.883 16.1008 258.086 16.2634 258.32 16.2634H269.649C269.969 16.2634 270.206 15.9672 270.142 15.6541C269.361 11.8758 269.17 8.32491 270.104 4.54781C270.184 4.22656 269.944 3.9104 269.613 3.9104Z" fill="url(#paint11_linear_147_777)"/>
<path d="M48.5766 3.9104H59.8758C60.1074 3.9104 60.3092 4.06947 60.3597 4.29546C61.2836 8.42569 61.1553 12.0877 60.356 15.8717C60.3075 16.1008 60.1043 16.2634 59.8701 16.2634H48.5408C48.221 16.2634 47.9837 15.9672 48.0484 15.6541C48.8294 11.8758 49.02 8.32491 48.0857 4.54781C48.0063 4.22656 48.2457 3.9104 48.5766 3.9104Z" fill="url(#paint12_linear_147_777)"/>
<defs>
<linearGradient id="paint0_linear_147_777" x1="279.537" y1="4.68237" x2="284.169" y2="4.68237" gradientUnits="userSpaceOnUse">
<stop stop-color="#CDCDCD"/>
<stop offset="1" stop-color="#AFAFAF"/>
</linearGradient>
<linearGradient id="paint1_linear_147_777" x1="276.449" y1="17.0354" x2="318.14" y2="17.0354" gradientUnits="userSpaceOnUse">
<stop stop-color="#AFAFAF"/>
<stop offset="0.504808" stop-color="#CDCDCD"/>
<stop offset="1" stop-color="#AFAFAF"/>
</linearGradient>
<linearGradient id="paint2_linear_147_777" x1="272.993" y1="3.9104" x2="272.993" y2="16.2634" gradientUnits="userSpaceOnUse">
<stop stop-color="#AFAFAF"/>
<stop offset="0.5" stop-color="#CDCDCD"/>
<stop offset="1" stop-color="#AFAFAF"/>
</linearGradient>
<linearGradient id="paint3_linear_147_777" x1="276.449" y1="30.9325" x2="318.14" y2="30.9325" gradientUnits="userSpaceOnUse">
<stop offset="0.361111" stop-color="#CDCDCD"/>
<stop offset="1" stop-color="#AFAFAF"/>
</linearGradient>
<linearGradient id="paint4_linear_147_777" x1="159.083" y1="4.68237" x2="159.083" y2="15.4913" gradientUnits="userSpaceOnUse">
<stop stop-color="#037AA6"/>
<stop offset="0.5" stop-color="#037AA6" stop-opacity="0.7"/>
<stop offset="1" stop-color="#037AA6"/>
</linearGradient>
<linearGradient id="paint5_linear_147_777" x1="285.713" y1="2.36624" x2="308.875" y2="2.36624" gradientUnits="userSpaceOnUse">
<stop stop-color="#CDCDCD"/>
<stop offset="1" stop-color="#AFAFAF"/>
</linearGradient>
<linearGradient id="paint6_linear_147_777" x1="38.6532" y1="4.68237" x2="34.0208" y2="4.68237" gradientUnits="userSpaceOnUse">
<stop stop-color="#CDCDCD"/>
<stop offset="1" stop-color="#AFAFAF"/>
</linearGradient>
<linearGradient id="paint7_linear_147_777" x1="41.7414" y1="17.0354" x2="0.0500068" y2="17.0354" gradientUnits="userSpaceOnUse">
<stop stop-color="#AFAFAF"/>
<stop offset="0.504808" stop-color="#CDCDCD"/>
<stop offset="1" stop-color="#AFAFAF"/>
</linearGradient>
<linearGradient id="paint8_linear_147_777" x1="45.1967" y1="3.9104" x2="45.1967" y2="16.2634" gradientUnits="userSpaceOnUse">
<stop stop-color="#AFAFAF"/>
<stop offset="0.5" stop-color="#CDCDCD"/>
<stop offset="1" stop-color="#AFAFAF"/>
</linearGradient>
<linearGradient id="paint9_linear_147_777" x1="41.7414" y1="30.9325" x2="0.0500069" y2="30.9325" gradientUnits="userSpaceOnUse">
<stop offset="0.361111" stop-color="#CDCDCD"/>
<stop offset="1" stop-color="#AFAFAF"/>
</linearGradient>
<linearGradient id="paint10_linear_147_777" x1="32.4767" y1="2.36624" x2="9.31479" y2="2.36624" gradientUnits="userSpaceOnUse">
<stop stop-color="#CDCDCD"/>
<stop offset="1" stop-color="#AFAFAF"/>
</linearGradient>
<linearGradient id="paint11_linear_147_777" x1="263.729" y1="3.9104" x2="263.729" y2="16.2634" gradientUnits="userSpaceOnUse">
<stop stop-color="#DD8635"/>
<stop offset="0.5" stop-color="#FFD36D"/>
<stop offset="1" stop-color="#DD8635"/>
</linearGradient>
<linearGradient id="paint12_linear_147_777" x1="54.4614" y1="3.9104" x2="54.4614" y2="16.2634" gradientUnits="userSpaceOnUse">
<stop stop-color="#DD8635"/>
<stop offset="0.5" stop-color="#FFD36D"/>
<stop offset="1" stop-color="#DD8635"/>
</linearGradient>
</defs>
</svg>
