<svg width="42" height="35" viewBox="0 0 42 35" fill="none" xmlns="http://www.w3.org/2000/svg">
<path opacity="0.9" d="M2.05 27.8443H39.7414C40.846 27.8443 41.7414 26.9489 41.7414 25.8443V16.1322C41.7414 15.7153 41.6112 15.3089 41.3689 14.9697L34.619 5.5199C34.2436 4.9943 33.6375 4.68237 32.9916 4.68237H8.79987C8.15397 4.68237 7.54783 4.9943 7.17241 5.5199L0.422539 14.9697C0.180252 15.3089 0.0500069 15.7153 0.0500069 16.1322V25.8443C0.0500069 26.9489 0.945435 27.8443 2.05 27.8443Z" fill="url(#paint0_linear_148_591)" stroke="#979797" stroke-width="0.1"/>
<path d="M39.591 27.894H2.20041C1.75373 27.8941 1.36776 28.2056 1.27267 28.6421L0.362518 32.8188C0.233781 33.411 0.685237 33.9712 1.29123 33.9712H40.5002C41.1062 33.9712 41.5577 33.411 41.4289 32.8188L40.5188 28.6421C40.4237 28.2056 40.0377 27.8941 39.591 27.894Z" fill="url(#paint1_linear_148_591)" stroke="#979797" stroke-width="0.1"/>
<path d="M32.4767 1.74281V4.18243C32.4767 4.45857 32.2528 4.68243 31.9767 4.68243H9.81479C9.53864 4.68243 9.31479 4.45857 9.31479 4.18243V1.74281C9.31479 1.64582 9.343 1.55092 9.39598 1.46968L10.1739 0.276915C10.2662 0.135386 10.4237 0.0500488 10.5927 0.0500488H31.1988C31.3678 0.0500488 31.5253 0.135386 31.6176 0.276915L32.3955 1.46968C32.4485 1.55092 32.4767 1.64582 32.4767 1.74281Z" fill="url(#paint2_linear_148_591)" stroke="#979797" stroke-width="0.1"/>
<path d="M18.6299 21.7177V27.7948H23.1621V21.7177H18.6299Z" fill="#AFAFAF" stroke="#979797" stroke-width="0.1"/>
<path d="M29.5425 21.7177C29.5763 21.7426 29.6168 21.7714 29.6606 21.8055C29.8065 21.919 30.001 22.0815 30.1958 22.2762C30.3905 22.4709 30.5863 22.6993 30.7339 22.9452C30.8813 23.1908 30.9829 23.4569 30.9829 23.7264V27.7948H35.5151V23.7264C35.5151 23.4815 35.4228 23.2327 35.2808 22.996C35.1388 22.7595 34.9485 22.5378 34.7573 22.3466C34.5662 22.1554 34.3746 21.9963 34.231 21.8846C34.1592 21.8288 34.0998 21.7846 34.0581 21.7548C34.0374 21.7399 34.0213 21.7282 34.0103 21.7206C34.0089 21.7197 34.0075 21.7185 34.0063 21.7177H29.5425Z" fill="#AFAFAF" stroke="#979797" stroke-width="0.1"/>
<path d="M12.249 21.7177C12.2152 21.7426 12.1747 21.7714 12.1309 21.8055C11.985 21.919 11.7905 22.0815 11.5957 22.2762C11.401 22.4709 11.2052 22.6993 11.0576 22.9452C10.9103 23.1908 10.8086 23.4569 10.8086 23.7264V27.7948H6.27637V23.7264C6.27644 23.4815 6.36868 23.2327 6.51074 22.996C6.65267 22.7595 6.84296 22.5378 7.03418 22.3466C7.22529 22.1554 7.41693 21.9963 7.56055 21.8846C7.63229 21.8288 7.69167 21.7846 7.7334 21.7548C7.75414 21.7399 7.77016 21.7282 7.78125 21.7206C7.7826 21.7197 7.78396 21.7185 7.78516 21.7177H12.249Z" fill="#AFAFAF" stroke="#979797" stroke-width="0.1"/>
<defs>
<linearGradient id="paint0_linear_148_591" x1="41.7414" y1="17.0354" x2="0.0500068" y2="17.0354" gradientUnits="userSpaceOnUse">
<stop stop-color="#AFAFAF"/>
<stop offset="0.504808" stop-color="#CDCDCD"/>
<stop offset="1" stop-color="#AFAFAF"/>
</linearGradient>
<linearGradient id="paint1_linear_148_591" x1="41.7414" y1="30.9325" x2="0.0500069" y2="30.9325" gradientUnits="userSpaceOnUse">
<stop offset="0.361111" stop-color="#CDCDCD"/>
<stop offset="1" stop-color="#AFAFAF"/>
</linearGradient>
<linearGradient id="paint2_linear_148_591" x1="32.4767" y1="2.36624" x2="9.31479" y2="2.36624" gradientUnits="userSpaceOnUse">
<stop stop-color="#CDCDCD"/>
<stop offset="1" stop-color="#AFAFAF"/>
</linearGradient>
</defs>
</svg>
