<svg width="16" height="20" viewBox="0 0 16 20" fill="none" xmlns="http://www.w3.org/2000/svg">
<path d="M10.5 16C10.9167 16 11.271 15.854 11.563 15.562C11.855 15.27 12.0007 14.916 12 14.5C12 14.0833 11.854 13.729 11.562 13.437C11.27 13.145 10.916 12.9993 10.5 13C10.0833 13 9.729 13.146 9.437 13.438C9.145 13.73 8.99933 14.084 9 14.5C9 14.9167 9.146 15.271 9.438 15.563C9.73 15.855 10.084 16.0007 10.5 16ZM5.45 15.95L11.95 9.45L10.55 8.05L4.05 14.55L5.45 15.95ZM5.5 11C5.91667 11 6.271 10.854 6.563 10.562C6.855 10.27 7.00067 9.916 7 9.5C7 9.08333 6.854 8.729 6.562 8.437C6.27 8.145 5.916 7.99933 5.5 8C5.08333 8 4.729 8.146 4.437 8.438C4.145 8.73 3.99933 9.084 4 9.5C4 9.91667 4.146 10.271 4.438 10.563C4.73 10.855 5.084 11.0007 5.5 11ZM8 20C5.71667 20 3.81233 19.2167 2.287 17.65C0.761667 16.0833 -0.00066623 14.1333 4.36872e-07 11.8C4.36872e-07 10.1333 0.662667 8.32067 1.988 6.362C3.31333 4.40333 5.31733 2.28267 8 0C10.6833 2.28333 12.6877 4.40433 14.013 6.363C15.3383 8.32167 16.0007 10.134 16 11.8C16 14.1333 15.2373 16.0833 13.712 17.65C12.1867 19.2167 10.2827 20 8 20ZM8 18C9.73333 18 11.1667 17.4123 12.3 16.237C13.4333 15.0617 14 13.5827 14 11.8C14 10.5833 13.4957 9.20833 12.487 7.675C11.4783 6.14167 9.98267 4.46667 8 2.65C6.01667 4.46667 4.521 6.14167 3.513 7.675C2.505 9.20833 2.00067 10.5833 2 11.8C2 13.5833 2.56667 15.0627 3.7 16.238C4.83333 17.4133 6.26667 18.0007 8 18Z" fill="black"/>
</svg>
