<svg width="599" height="654" viewBox="0 0 599 654" fill="none" xmlns="http://www.w3.org/2000/svg">
<path d="M358 1.29236C352.667 3.42569 278.4 63.8257 275.867 67.959C272.534 73.8257 271.6 84.8924 274.134 90.8924C276 95.4257 331.6 165.959 337.2 170.892C350.267 182.492 371.467 177.292 379.2 160.626C384.134 150.092 381.734 140.226 371.2 127.292C368.267 123.692 366.134 120.492 366.4 120.226C367.6 118.892 390.4 127.426 406.4 135.159C473.867 167.692 522.534 230.092 538.4 304.759C550.267 359.692 543.2 413.692 517.734 464.626C504.934 489.959 493.867 505.159 472.4 526.626C450.8 548.359 435.467 559.426 410.4 571.826C382.267 585.826 354.934 593.826 324.134 597.159C271.867 602.892 213.734 589.426 170.267 561.559L159.467 554.626L123.067 558.626C103.067 560.892 86.2669 563.026 85.8669 563.292C84.0002 565.292 115.734 592.092 135.467 605.026C171.334 628.626 213.734 644.759 257.734 651.559C278.667 654.759 320.667 654.626 341.734 651.426C475.334 631.026 576 530.092 595.867 396.626C599.067 375.159 599.067 335.959 595.867 314.092C581.333 213.959 521.067 129.292 433.067 85.559C415.734 76.8924 393.334 68.359 378.134 64.4924C372.8 63.159 368.4 61.6924 368.534 61.2924C368.534 60.8924 373.2 57.0257 378.8 52.6257C392.134 42.2257 395.334 36.759 394.667 25.6924C394.134 15.4257 389.334 7.69236 380.534 3.02569C374.267 -0.17431 363.867 -0.97431 358 1.29236Z" fill="white"/>
<path d="M63.5999 181.159C55.9999 183.026 49.4666 188.226 44.1332 196.493C35.7332 209.426 20.9332 240.626 15.5999 256.626C11.0666 270.626 4.3999 296.893 4.3999 301.293C4.3999 303.159 7.46657 303.026 31.4666 300.359C46.2666 298.626 59.0666 296.893 59.9999 296.626C60.9332 296.359 61.9999 294.359 62.5332 292.359C66.3999 274.759 80.1332 242.359 91.3332 224.893C96.5332 216.759 97.9999 210.359 96.2666 202.359C92.9332 187.026 78.1332 177.426 63.5999 181.159Z" fill="white"/>
<path d="M298.4 234.626C296.933 235.16 294.4 237.026 292.933 238.76C288 244.36 219.067 389.293 219.067 394.093C219.067 397.16 220 399.16 222.533 401.16C225.867 403.693 227.867 403.96 248.667 403.96C269.733 403.96 271.333 404.093 270.4 406.226C270 407.56 257.6 431.96 242.933 460.493C223.867 497.827 216.4 513.693 216.4 516.893C216.4 523.027 221.733 527.96 228.267 527.96C232.4 527.96 234.133 526.76 242.4 518.227C337.6 419.16 372 383.293 372.933 381.56C374.933 377.96 374 371.826 370.933 368.493C368 365.293 367.6 365.293 342.8 365.293C329.067 365.293 317.733 364.893 317.733 364.226C317.733 363.693 332.133 337.826 349.733 306.76C375.333 261.56 381.733 249.293 381.733 245.426C381.6 240.093 379.867 237.16 375.467 234.893C372.133 233.026 302.667 232.76 298.4 234.626Z" fill="white"/>
<path d="M20.5333 353.026L0 355.16L0.8 371.826C1.73333 392.626 4.13333 407.96 6.66667 408.893C8.53333 409.56 53.4667 405.693 57.8667 404.493C59.7333 403.96 59.7333 403.026 58.1333 395.56C57.0667 391.026 56 379.026 55.4667 368.893L54.6667 350.626L47.8667 350.76C44.1333 350.893 31.8667 351.96 20.5333 353.026Z" fill="white"/>
<path d="M47.0669 459.693C32.0002 461.56 19.6002 463.16 19.3335 463.293C18.5335 463.96 29.0669 486.493 36.8002 500.893C43.0669 512.627 45.4669 515.96 47.6002 515.96C53.0669 515.96 102.4 510.36 104.667 509.56C106.667 508.76 105.867 506.76 98.8002 495.96C94.2669 489.027 87.3335 477.16 83.4669 469.693C79.4669 462.093 75.7335 456.093 75.3335 456.093C74.8002 456.227 62.1335 457.827 47.0669 459.693Z" fill="white"/>
</svg>
