<svg width="212" height="223" viewBox="0 0 212 223" fill="none" xmlns="http://www.w3.org/2000/svg">
<path d="M177 58H188.5L187 58.5L182 65H177V58Z" fill="url(#paint0_linear_129_682)"/>
<path opacity="0.9" d="M207 73H184C182.895 73 182 72.1046 182 71V65.6409C182 65.2241 182.13 64.8177 182.373 64.4785L186.402 58.8375C186.777 58.3119 187.383 58 188.029 58H202.971C203.617 58 204.223 58.3119 204.598 58.8375L208.627 64.4785C208.87 64.8177 209 65.2241 209 65.6409V71C209 72.1046 208.105 73 207 73Z" fill="url(#paint1_linear_129_682)" stroke="#979797" stroke-width="0.1"/>
<path d="M180.341 57.5H179.395C179.163 57.5 178.961 57.6592 178.912 57.8856C178.358 60.4547 178.433 62.7479 178.916 65.1079C178.963 65.3374 179.167 65.5 179.401 65.5H180.377C180.697 65.5 180.934 65.2039 180.872 64.8903C180.418 62.5985 180.311 60.4293 180.837 58.1386C180.912 57.8161 180.672 57.5 180.341 57.5Z" fill="url(#paint2_linear_129_682)"/>
<path d="M183.677 73.0498H207.323C207.77 73.0498 208.157 73.3613 208.252 73.7979L208.688 75.7979C208.816 76.39 208.365 76.9502 207.759 76.9502H183.241C182.635 76.9502 182.184 76.39 182.312 75.7979L182.748 73.7979C182.843 73.3613 183.23 73.0498 183.677 73.0498Z" fill="url(#paint3_linear_129_682)" stroke="#979797" stroke-width="0.1"/>
<path d="M41 58H170C170 58 169.508 60.0785 169.508 61.5C169.508 62.9215 170 65 170 65H41C41 65 41.4924 62.8807 41.4924 61.5C41.4924 60.1193 41 58 41 58Z" fill="url(#paint4_linear_129_682)"/>
<path d="M188 56.1486V57.5C188 57.7761 188.224 58 188.5 58H202.5C202.776 58 203 57.7761 203 57.5V56.1486C203 56.0516 202.972 55.9567 202.919 55.8755L202.496 55.2269C202.403 55.0853 202.246 55 202.077 55H188.923C188.754 55 188.597 55.0853 188.504 55.2269L188.081 55.8755C188.028 55.9567 188 56.0516 188 56.1486Z" fill="url(#paint5_linear_129_682)" stroke="#979797" stroke-width="0.1"/>
<rect width="15" height="130" transform="matrix(-1 0 0 1 23 93)" fill="url(#paint6_linear_129_682)"/>
<rect width="15" height="130" transform="matrix(-1 0 0 1 203 93)" fill="url(#paint7_linear_129_682)"/>
<rect x="2" y="79" width="208" height="12" fill="url(#paint8_linear_129_682)"/>
<path d="M0 77H212L210 79H2L0 77Z" fill="url(#paint9_linear_129_682)"/>
<path d="M0 93H212L210 91H2L0 93Z" fill="url(#paint10_linear_129_682)"/>
<path d="M196.95 69.0498V72.9502H194.05V69.0498H196.95Z" fill="#AFAFAF" stroke="#979797" stroke-width="0.1"/>
<path d="M189.848 69.0498C189.837 69.058 189.825 69.0661 189.813 69.0752C189.719 69.1489 189.592 69.2541 189.465 69.3809C189.338 69.5076 189.21 69.6574 189.113 69.8184C189.017 69.9789 188.95 70.1543 188.95 70.333V72.9502H186.05V70.333C186.05 70.1787 186.108 70.0209 186.199 69.8691C186.29 69.7178 186.412 69.5753 186.535 69.4521C186.658 69.3292 186.781 69.2263 186.874 69.1543C186.92 69.1183 186.959 69.0895 186.986 69.0703C186.999 69.0612 187.01 69.0547 187.017 69.0498H189.848Z" fill="#AFAFAF" stroke="#979797" stroke-width="0.1"/>
<path d="M201.152 69.0498C201.163 69.058 201.175 69.0661 201.187 69.0752C201.281 69.1489 201.408 69.2541 201.535 69.3809C201.662 69.5076 201.79 69.6574 201.887 69.8184C201.983 69.9789 202.05 70.1543 202.05 70.333V72.9502H204.95V70.333C204.95 70.1787 204.892 70.0209 204.801 69.8691C204.71 69.7178 204.588 69.5753 204.465 69.4521C204.342 69.3292 204.219 69.2263 204.126 69.1543C204.08 69.1183 204.041 69.0895 204.014 69.0703C204.001 69.0612 203.99 69.0547 203.983 69.0498H201.152Z" fill="#AFAFAF" stroke="#979797" stroke-width="0.1"/>
<path d="M35 58H23.5L25 58.5L30 65H35V58Z" fill="url(#paint11_linear_129_682)"/>
<path opacity="0.9" d="M5 73H28C29.1046 73 30 72.1046 30 71V65.6409C30 65.2241 29.8698 64.8177 29.6275 64.4785L25.5982 58.8375C25.2228 58.3119 24.6167 58 23.9708 58H9.02924C8.38333 58 7.77719 58.3119 7.40177 58.8375L3.37253 64.4785C3.13025 64.8177 3 65.2241 3 65.6409V71C3 72.1046 3.89543 73 5 73Z" fill="url(#paint12_linear_129_682)" stroke="#979797" stroke-width="0.1"/>
<path d="M31.6587 57.5H32.605C32.8366 57.5 33.0387 57.6592 33.0876 57.8856C33.6421 60.4547 33.5671 62.7479 33.0839 65.1079C33.0369 65.3374 32.8334 65.5 32.5992 65.5H31.6229C31.3031 65.5 31.0659 65.2039 31.1281 64.8903C31.582 62.5985 31.6893 60.4293 31.1626 58.1386C31.0884 57.8161 31.3278 57.5 31.6587 57.5Z" fill="url(#paint13_linear_129_682)"/>
<path d="M28.3232 73.0498H4.67676C4.22997 73.0498 3.8431 73.3613 3.74805 73.7979L3.3125 75.7979C3.18359 76.39 3.63513 76.9502 4.24121 76.9502H28.7588C29.3649 76.9502 29.8164 76.39 29.6875 75.7979L29.252 73.7979C29.1569 73.3613 28.77 73.0498 28.3232 73.0498Z" fill="url(#paint14_linear_129_682)" stroke="#979797" stroke-width="0.1"/>
<path d="M24 56.1486V57.5C24 57.7761 23.7761 58 23.5 58H9.5C9.22386 58 9 57.7761 9 57.5V56.1486C9 56.0516 9.02821 55.9567 9.08119 55.8755L9.50422 55.2269C9.59652 55.0853 9.75406 55 9.92302 55H23.077C23.2459 55 23.4035 55.0853 23.4958 55.2269L23.9188 55.8755C23.9718 55.9567 24 56.0516 24 56.1486Z" fill="url(#paint15_linear_129_682)" stroke="#979797" stroke-width="0.1"/>
<rect x="9" y="4" width="15" height="51" rx="1" fill="url(#paint16_linear_129_682)"/>
<path d="M15.0498 69.0498V72.9502H17.9502V69.0498H15.0498Z" fill="#AFAFAF" stroke="#979797" stroke-width="0.1"/>
<path d="M22.1523 69.0498C22.1631 69.058 22.1748 69.0661 22.1865 69.0752C22.2813 69.1489 22.4084 69.2541 22.5352 69.3809C22.6619 69.5076 22.7902 69.6574 22.8867 69.8184C22.983 69.9789 23.0497 70.1543 23.0498 70.333V72.9502H25.9502V70.333C25.9501 70.1787 25.8918 70.0209 25.8008 69.8691C25.7099 69.7178 25.588 69.5753 25.4648 69.4521C25.3419 69.3292 25.2186 69.2263 25.126 69.1543C25.0797 69.1183 25.0405 69.0895 25.0137 69.0703C25.0009 69.0612 24.9904 69.0547 24.9834 69.0498H22.1523Z" fill="#AFAFAF" stroke="#979797" stroke-width="0.1"/>
<path d="M10.8477 69.0498C10.8369 69.058 10.8252 69.0661 10.8135 69.0752C10.7187 69.1489 10.5916 69.2541 10.4648 69.3809C10.3381 69.5076 10.2098 69.6574 10.1133 69.8184C10.017 69.9789 9.95027 70.1543 9.9502 70.333V72.9502H7.0498V70.333C7.04989 70.1787 7.10819 70.0209 7.19922 69.8691C7.29009 69.7178 7.412 69.5753 7.53516 69.4521C7.65811 69.3292 7.78144 69.2263 7.87402 69.1543C7.9203 69.1183 7.95947 69.0895 7.98633 69.0703C7.9991 69.0612 8.00957 69.0547 8.0166 69.0498H10.8477Z" fill="#AFAFAF" stroke="#979797" stroke-width="0.1"/>
<path d="M177.341 57.5H170.395C170.164 57.5 169.961 57.6592 169.913 57.8856C169.358 60.4547 169.433 62.7479 169.916 65.1079C169.963 65.3374 170.167 65.5 170.401 65.5H177.377C177.697 65.5 177.934 65.2039 177.872 64.8903C177.418 62.5985 177.311 60.4293 177.837 58.1386C177.912 57.8161 177.672 57.5 177.341 57.5Z" fill="url(#paint17_linear_129_682)"/>
<path d="M34.6587 57.5H41.6049C41.8365 57.5 42.0386 57.6592 42.0874 57.8856C42.642 60.4547 42.5671 62.7479 42.0839 65.1079C42.0369 65.3374 41.8334 65.5 41.5991 65.5H34.6229C34.3031 65.5 34.0659 65.2039 34.1281 64.8903C34.582 62.5985 34.6893 60.4293 34.1626 58.1386C34.0884 57.8161 34.3278 57.5 34.6587 57.5Z" fill="url(#paint18_linear_129_682)"/>
<path d="M44.4848 21.1825L43.5451 32.4585C43.5208 32.75 43.7509 33 44.0434 33H61.9566C62.2491 33 62.4792 32.75 62.4549 32.4585L61.5152 21.1825C61.5054 21.0647 61.4541 20.9541 61.3705 20.8705L60.6464 20.1464C60.5527 20.0527 60.4255 20 60.2929 20H45.7071C45.5745 20 45.4473 20.0527 45.3536 20.1464L44.6295 20.8705C44.5459 20.9541 44.4946 21.0647 44.4848 21.1825Z" fill="url(#paint19_linear_129_682)"/>
<path d="M44.6 23H47.4C47.4552 23 47.5 22.9552 47.5 22.9V21.0414C47.5 21.0149 47.5105 20.9895 47.5293 20.9707L48.3293 20.1707C48.3923 20.1077 48.3477 20 48.2586 20H45.5414C45.5149 20 45.4895 20.0105 45.4707 20.0293L44.5293 20.9707C44.5105 20.9895 44.5 21.0149 44.5 21.0414V22.9C44.5 22.9552 44.5448 23 44.6 23Z" fill="#FF3333"/>
<path d="M41.5 35.5V33.9051C41.5 33.669 41.6653 33.465 41.8963 33.416L43.8081 33.0109C43.8422 33.0036 43.8769 33 43.9118 33H62.0897C62.1339 33 62.1779 33.0059 62.2205 33.0174L63.6309 33.3999C63.8487 33.459 64 33.6567 64 33.8825V35.5C64 35.7761 63.7761 36 63.5 36H42C41.7239 36 41.5 35.7761 41.5 35.5Z" fill="url(#paint20_linear_129_682)"/>
<path d="M41.5 57.5V55.9051C41.5 55.669 41.6653 55.465 41.8963 55.416L43.8081 55.0109C43.8422 55.0036 43.8769 55 43.9118 55H62.0897C62.1339 55 62.1779 55.0059 62.2205 55.0174L63.6309 55.3999C63.8487 55.459 64 55.6567 64 55.8825V57.5C64 57.7761 63.7761 58 63.5 58H42C41.7239 58 41.5 57.7761 41.5 57.5Z" fill="url(#paint21_linear_129_682)"/>
<path d="M62.5 54.5V36.5C62.5 36.2239 62.2761 36 62 36H43C42.7239 36 42.5 36.2239 42.5 36.5V54.5C42.5 54.7761 42.7239 55 43 55H62C62.2761 55 62.5 54.7761 62.5 54.5Z" fill="url(#paint22_linear_129_682)"/>
<path d="M60.8323 38H63.2741C63.6159 38 63.8564 38.3363 63.7541 38.6624C62.6234 42.2693 62.6238 44.5951 63.7629 48.3427C63.8617 48.6676 63.6214 49 63.282 49H60.8491C60.6247 49 60.4273 48.8498 60.3686 48.6333C59.2356 44.4539 59.189 42.0743 60.3587 38.3459C60.4235 38.1394 60.6159 38 60.8323 38Z" fill="url(#paint23_linear_129_682)"/>
<path d="M35.0907 37H42C42.2761 37 42.5 37.2239 42.5 37.5V52C42.5 52.2761 42.2761 52.5 42 52.5H27.5C27.2239 52.5 27 52.2761 27 52V40.3465C27 40.1381 27.1293 39.9515 27.3244 39.8783L34.9151 37.0318C34.9712 37.0108 35.0307 37 35.0907 37Z" fill="url(#paint24_linear_129_682)"/>
<path d="M24.5 40.5H26.5C26.7761 40.5 27 40.7239 27 41V52C27 52.2761 26.7761 52.5 26.5 52.5H24.5C24.2239 52.5 24 52.2761 24 52V41C24 40.7239 24.2239 40.5 24.5 40.5Z" fill="url(#paint25_linear_129_682)"/>
<path d="M49.5 25L48.5293 25.9707C48.5105 25.9895 48.5 26.0149 48.5 26.0414V33" stroke="#79A3B4" stroke-width="0.5"/>
<path d="M49.5 40L48.5118 41.8529C48.504 41.8674 48.5 41.8836 48.5 41.9V55" stroke="#79A3B4" stroke-width="0.5"/>
<path d="M53 25V33" stroke="#79A3B4" stroke-width="0.5"/>
<path d="M53.5 40V55" stroke="#79A3B4" stroke-width="0.5"/>
<path d="M56.5 25L57.4707 25.9707C57.4895 25.9895 57.5 26.0149 57.5 26.0414V33" stroke="#79A3B4" stroke-width="0.5"/>
<path d="M56.5 40L57.4882 41.8529C57.496 41.8674 57.5 41.8836 57.5 41.9V55" stroke="#79A3B4" stroke-width="0.5"/>
<path d="M64.5 38.0498C64.8283 38.0498 65.1136 38.1957 65.3584 38.4658C65.604 38.737 65.8082 39.133 65.9707 39.627C66.2956 40.615 66.4502 41.9839 66.4502 43.5C66.4502 45.0161 66.2956 46.385 65.9707 47.373C65.8082 47.867 65.604 48.263 65.3584 48.5342C65.1136 48.8043 64.8283 48.9502 64.5 48.9502C64.1717 48.9502 63.8864 48.8043 63.6416 48.5342C63.396 48.263 63.1918 47.867 63.0293 47.373C62.7044 46.385 62.5498 45.0161 62.5498 43.5C62.5498 41.9839 62.7044 40.615 63.0293 39.627C63.1918 39.133 63.396 38.737 63.6416 38.4658C63.8864 38.1957 64.1717 38.0498 64.5 38.0498Z" fill="url(#paint26_linear_129_682)" stroke="#749EAF" stroke-width="0.1"/>
<rect x="8" width="17" height="4" rx="1" fill="#0C7FA9"/>
<rect x="188" y="4" width="15" height="51" rx="1" fill="url(#paint27_linear_129_682)"/>
<rect x="187" width="17" height="4" rx="1" fill="#0C7FA9"/>
<path d="M36.9688 30.375H42.0312L40.3438 38.8125H38.6562L36.9688 30.375Z" fill="url(#paint28_linear_129_682)"/>
<path d="M49.625 37.9688V43.0312L41.1875 41.3438V39.6562L49.625 37.9688Z" fill="url(#paint29_linear_129_682)"/>
<path d="M37.8125 39.6562V41.3438L29.375 43.0312V37.9688L37.8125 39.6562Z" fill="url(#paint30_linear_129_682)"/>
<path d="M38.6562 42.1875H40.3438L42.0312 50.625H36.9688L38.6562 42.1875Z" fill="url(#paint31_linear_129_682)"/>
<circle cx="39.5" cy="40.5" r="1.6875" fill="url(#paint32_linear_129_682)"/>
<path d="M42.9023 40.5547C42.8872 42.4186 41.364 43.9173 39.5001 43.9022C37.6362 43.887 36.1374 42.3638 36.1526 40.4999C36.1677 38.636 37.6909 37.1373 39.5548 37.1524C41.4187 37.1675 42.9175 38.6908 42.9023 40.5547ZM38.037 40.5152C38.0303 41.3383 38.6922 42.0111 39.5153 42.0177C40.3385 42.0244 41.0112 41.3625 41.0179 40.5394C41.0246 39.7162 40.3627 39.0435 39.5395 39.0368C38.7164 39.0301 38.0437 39.692 38.037 40.5152Z" fill="url(#paint33_linear_129_682)"/>
<path d="M53 40.5C53 47.9558 46.9558 54 39.5 54C32.0442 54 26 47.9558 26 40.5C26 33.0442 32.0442 27 39.5 27C46.9558 27 53 33.0442 53 40.5ZM30.0306 40.5C30.0306 45.7298 34.2702 49.9694 39.5 49.9694C44.7298 49.9694 48.9694 45.7298 48.9694 40.5C48.9694 35.2702 44.7298 31.0306 39.5 31.0306C34.2702 31.0306 30.0306 35.2702 30.0306 40.5Z" fill="url(#paint34_linear_129_682)"/>
<defs>
<linearGradient id="paint0_linear_129_682" x1="184" y1="58" x2="187" y2="58" gradientUnits="userSpaceOnUse">
<stop stop-color="#CDCDCD"/>
<stop offset="1" stop-color="#AFAFAF"/>
</linearGradient>
<linearGradient id="paint1_linear_129_682" x1="182" y1="66" x2="209" y2="66" gradientUnits="userSpaceOnUse">
<stop stop-color="#AFAFAF"/>
<stop offset="0.504808" stop-color="#CDCDCD"/>
<stop offset="1" stop-color="#AFAFAF"/>
</linearGradient>
<linearGradient id="paint2_linear_129_682" x1="179.762" y1="57.5" x2="179.762" y2="65.5" gradientUnits="userSpaceOnUse">
<stop stop-color="#AFAFAF"/>
<stop offset="0.5" stop-color="#CDCDCD"/>
<stop offset="1" stop-color="#AFAFAF"/>
</linearGradient>
<linearGradient id="paint3_linear_129_682" x1="182" y1="75" x2="209" y2="75" gradientUnits="userSpaceOnUse">
<stop offset="0.361111" stop-color="#CDCDCD"/>
<stop offset="1" stop-color="#AFAFAF"/>
</linearGradient>
<linearGradient id="paint4_linear_129_682" x1="105.992" y1="58" x2="105.992" y2="65" gradientUnits="userSpaceOnUse">
<stop stop-color="#037AA6"/>
<stop offset="0.5" stop-color="#037AA6" stop-opacity="0.7"/>
<stop offset="1" stop-color="#037AA6"/>
</linearGradient>
<linearGradient id="paint5_linear_129_682" x1="188" y1="56.5" x2="203" y2="56.5" gradientUnits="userSpaceOnUse">
<stop stop-color="#CDCDCD"/>
<stop offset="1" stop-color="#AFAFAF"/>
</linearGradient>
<linearGradient id="paint6_linear_129_682" x1="15" y1="65" x2="1.96145e-07" y2="65" gradientUnits="userSpaceOnUse">
<stop stop-color="#037AA6"/>
<stop offset="0.5" stop-color="#037AA6" stop-opacity="0.7"/>
<stop offset="1" stop-color="#037AA6"/>
</linearGradient>
<linearGradient id="paint7_linear_129_682" x1="15" y1="65" x2="1.96145e-07" y2="65" gradientUnits="userSpaceOnUse">
<stop stop-color="#037AA6"/>
<stop offset="0.5" stop-color="#037AA6" stop-opacity="0.7"/>
<stop offset="1" stop-color="#037AA6"/>
</linearGradient>
<linearGradient id="paint8_linear_129_682" x1="106" y1="79" x2="106" y2="91" gradientUnits="userSpaceOnUse">
<stop stop-color="#3E99BB"/>
<stop offset="0.5" stop-color="#47BDE9"/>
<stop offset="1" stop-color="#3E99BB"/>
</linearGradient>
<linearGradient id="paint9_linear_129_682" x1="106" y1="77" x2="106" y2="79" gradientUnits="userSpaceOnUse">
<stop stop-color="#047AA6"/>
<stop offset="1" stop-color="#006D96"/>
</linearGradient>
<linearGradient id="paint10_linear_129_682" x1="106" y1="93" x2="106" y2="91" gradientUnits="userSpaceOnUse">
<stop stop-color="#047AA6"/>
<stop offset="1" stop-color="#006D96"/>
</linearGradient>
<linearGradient id="paint11_linear_129_682" x1="28" y1="58" x2="25" y2="58" gradientUnits="userSpaceOnUse">
<stop stop-color="#CDCDCD"/>
<stop offset="1" stop-color="#AFAFAF"/>
</linearGradient>
<linearGradient id="paint12_linear_129_682" x1="30" y1="66" x2="3" y2="66" gradientUnits="userSpaceOnUse">
<stop stop-color="#AFAFAF"/>
<stop offset="0.504808" stop-color="#CDCDCD"/>
<stop offset="1" stop-color="#AFAFAF"/>
</linearGradient>
<linearGradient id="paint13_linear_129_682" x1="32.2377" y1="57.5" x2="32.2377" y2="65.5" gradientUnits="userSpaceOnUse">
<stop stop-color="#AFAFAF"/>
<stop offset="0.5" stop-color="#CDCDCD"/>
<stop offset="1" stop-color="#AFAFAF"/>
</linearGradient>
<linearGradient id="paint14_linear_129_682" x1="30" y1="75" x2="3" y2="75" gradientUnits="userSpaceOnUse">
<stop offset="0.361111" stop-color="#CDCDCD"/>
<stop offset="1" stop-color="#AFAFAF"/>
</linearGradient>
<linearGradient id="paint15_linear_129_682" x1="24" y1="56.5" x2="9" y2="56.5" gradientUnits="userSpaceOnUse">
<stop stop-color="#CDCDCD"/>
<stop offset="1" stop-color="#AFAFAF"/>
</linearGradient>
<linearGradient id="paint16_linear_129_682" x1="24" y1="29.5" x2="9" y2="29.5" gradientUnits="userSpaceOnUse">
<stop stop-color="#037AA6"/>
<stop offset="0.5" stop-color="#037AA6" stop-opacity="0.7"/>
<stop offset="1" stop-color="#037AA6"/>
</linearGradient>
<linearGradient id="paint17_linear_129_682" x1="173.762" y1="57.5" x2="173.762" y2="65.5" gradientUnits="userSpaceOnUse">
<stop stop-color="#DD8635"/>
<stop offset="0.5" stop-color="#FFD36D"/>
<stop offset="1" stop-color="#DD8635"/>
</linearGradient>
<linearGradient id="paint18_linear_129_682" x1="38.2377" y1="57.5" x2="38.2377" y2="65.5" gradientUnits="userSpaceOnUse">
<stop stop-color="#DD8635"/>
<stop offset="0.5" stop-color="#FFD36D"/>
<stop offset="1" stop-color="#DD8635"/>
</linearGradient>
<linearGradient id="paint19_linear_129_682" x1="44" y1="27" x2="62" y2="27" gradientUnits="userSpaceOnUse">
<stop stop-color="#749EAF"/>
<stop offset="0.5" stop-color="#B5DAE9"/>
<stop offset="1" stop-color="#749EAF"/>
</linearGradient>
<linearGradient id="paint20_linear_129_682" x1="52.5" y1="36" x2="52.5" y2="33" gradientUnits="userSpaceOnUse">
<stop stop-color="#749EAF"/>
<stop offset="0.5" stop-color="#A2CEDF"/>
<stop offset="1" stop-color="#749EAF"/>
</linearGradient>
<linearGradient id="paint21_linear_129_682" x1="52.5" y1="58" x2="52.5" y2="55" gradientUnits="userSpaceOnUse">
<stop stop-color="#749EAF"/>
<stop offset="0.5" stop-color="#A2CEDF"/>
<stop offset="1" stop-color="#749EAF"/>
</linearGradient>
<linearGradient id="paint22_linear_129_682" x1="42.5" y1="46" x2="62.5" y2="46" gradientUnits="userSpaceOnUse">
<stop stop-color="#749EAF"/>
<stop offset="0.5" stop-color="#A1D9EF"/>
<stop offset="1" stop-color="#749EAF"/>
</linearGradient>
<linearGradient id="paint23_linear_129_682" x1="59.4695" y1="44" x2="62.9695" y2="44" gradientUnits="userSpaceOnUse">
<stop stop-color="#749EAF"/>
<stop offset="0.5" stop-color="#8FB7C8"/>
<stop offset="1" stop-color="#749EAF"/>
</linearGradient>
<linearGradient id="paint24_linear_129_682" x1="27.5" y1="45" x2="42.5" y2="45" gradientUnits="userSpaceOnUse">
<stop stop-color="#749EAF"/>
<stop offset="0.5" stop-color="#A1D6EB"/>
<stop offset="1" stop-color="#749EAF"/>
</linearGradient>
<linearGradient id="paint25_linear_129_682" x1="24" y1="47" x2="27" y2="47" gradientUnits="userSpaceOnUse">
<stop stop-color="#749EAF"/>
<stop offset="0.5" stop-color="#9ACEE3"/>
<stop offset="1" stop-color="#749EAF"/>
</linearGradient>
<linearGradient id="paint26_linear_129_682" x1="62.5" y1="44" x2="66.5" y2="44" gradientUnits="userSpaceOnUse">
<stop stop-color="#749EAF"/>
<stop offset="0.5" stop-color="#B3D6E4"/>
<stop offset="1" stop-color="#749EAF"/>
</linearGradient>
<linearGradient id="paint27_linear_129_682" x1="203" y1="29.5" x2="188" y2="29.5" gradientUnits="userSpaceOnUse">
<stop stop-color="#037AA6"/>
<stop offset="0.5" stop-color="#037AA6" stop-opacity="0.7"/>
<stop offset="1" stop-color="#037AA6"/>
</linearGradient>
<linearGradient id="paint28_linear_129_682" x1="41.1875" y1="34.5937" x2="37.8125" y2="34.5937" gradientUnits="userSpaceOnUse">
<stop stop-color="#1E2537"/>
<stop offset="0.5" stop-color="#4A5B84"/>
<stop offset="1" stop-color="#1E2537"/>
</linearGradient>
<linearGradient id="paint29_linear_129_682" x1="45.4062" y1="37.9688" x2="45.4062" y2="43.0312" gradientUnits="userSpaceOnUse">
<stop stop-color="#1E2537"/>
<stop offset="0.5" stop-color="#4A5B84"/>
<stop offset="1" stop-color="#1E2537"/>
</linearGradient>
<linearGradient id="paint30_linear_129_682" x1="29.375" y1="40.5" x2="37.8125" y2="40.5" gradientUnits="userSpaceOnUse">
<stop stop-color="#1E2537"/>
<stop offset="0.5" stop-color="#4A5B84"/>
<stop offset="1" stop-color="#1E2537"/>
</linearGradient>
<linearGradient id="paint31_linear_129_682" x1="41.1875" y1="46.4062" x2="37.8125" y2="46.4062" gradientUnits="userSpaceOnUse">
<stop stop-color="#1E2537"/>
<stop offset="0.5" stop-color="#4A5B84"/>
<stop offset="1" stop-color="#1E2537"/>
</linearGradient>
<linearGradient id="paint32_linear_129_682" x1="37.8125" y1="40.5" x2="41.1875" y2="40.5" gradientUnits="userSpaceOnUse">
<stop stop-color="#0378A4"/>
<stop offset="0.5" stop-color="#1EB0E6"/>
<stop offset="1" stop-color="#0378A4"/>
</linearGradient>
<linearGradient id="paint33_linear_129_682" x1="36.1512" y1="40.6606" x2="42.901" y2="40.7154" gradientUnits="userSpaceOnUse">
<stop stop-color="#171D2C"/>
<stop offset="0.495192" stop-color="#4B5878"/>
<stop offset="1" stop-color="#171D2C"/>
</linearGradient>
<linearGradient id="paint34_linear_129_682" x1="26" y1="41.1429" x2="53" y2="41.1429" gradientUnits="userSpaceOnUse">
<stop stop-color="#171D2C"/>
<stop offset="0.495192" stop-color="#4B5878"/>
<stop offset="1" stop-color="#171D2C"/>
</linearGradient>
</defs>
</svg>
