<svg width="492" height="216" viewBox="0 0 492 216" fill="none" xmlns="http://www.w3.org/2000/svg" >
<path d="M410.774 134.604H437.462L433.981 135.764L422.377 150.849H410.774V134.604Z" fill="url(#paint0_linear_129_682)"/>
<path opacity="0.9" d="M483.038 169.415H424.377C423.273 169.415 422.377 168.52 422.377 167.415V151.49C422.377 151.073 422.508 150.667 422.75 150.327L433.383 135.441C433.758 134.916 434.364 134.604 435.01 134.604H472.405C473.051 134.604 473.657 134.916 474.032 135.441L484.665 150.327C484.907 150.667 485.038 151.073 485.038 151.49V167.415C485.038 168.52 484.142 169.415 483.038 169.415Z" fill="url(#paint1_linear_129_682)" stroke="#979797" stroke-width="0.1"/>
<path d="M419.398 133.443H415.81C415.578 133.443 415.377 133.603 415.325 133.829C413.873 140.187 414.078 145.802 415.329 151.618C415.378 151.847 415.582 152.009 415.816 152.009H419.434C419.753 152.009 419.991 151.713 419.925 151.401C418.675 145.5 418.363 139.979 419.886 134.08C419.968 133.759 419.729 133.443 419.398 133.443Z" fill="url(#paint2_linear_129_682)"/>
<path d="M425.204 169.465H482.21C482.657 169.465 483.044 169.776 483.139 170.213L484.725 177.496C484.854 178.088 484.402 178.648 483.796 178.648H423.619C423.013 178.648 422.561 178.088 422.69 177.496L424.276 170.213C424.371 169.776 424.758 169.465 425.204 169.465Z" fill="url(#paint3_linear_129_682)" stroke="#979797" stroke-width="0.1"/>
<path d="M95.1509 134.604H394.528C394.528 134.604 393.386 139.427 393.386 142.726C393.386 146.025 394.528 150.849 394.528 150.849H95.1509C95.1509 150.849 96.2935 145.931 96.2935 142.726C96.2935 139.522 95.1509 134.604 95.1509 134.604Z" fill="url(#paint4_linear_129_682)"/>
<path d="M436.302 130.111V134.104C436.302 134.38 436.526 134.604 436.802 134.604H470.613C470.889 134.604 471.113 134.38 471.113 134.104V130.111C471.113 130.014 471.085 129.919 471.032 129.838L469.748 127.868C469.655 127.727 469.498 127.642 469.329 127.642H438.086C437.917 127.642 437.76 127.727 437.667 127.868L436.383 129.838C436.33 129.919 436.302 130.014 436.302 130.111Z" fill="url(#paint5_linear_129_682)" stroke="#979797" stroke-width="0.1"/>
<rect x="4.64148" y="183.34" width="482.717" height="27.8491" fill="url(#paint6_linear_129_682)"/>
<path d="M0 178.698H492L487.359 183.34H4.64151L0 178.698Z" fill="url(#paint7_linear_129_682)"/>
<path d="M0 215.83H492L487.359 211.189H4.64151L0 215.83Z" fill="url(#paint8_linear_129_682)"/>
<path d="M457.139 160.182V169.365H450.276V160.182H457.139Z" fill="#AFAFAF" stroke="#979797" stroke-width="0.1"/>
<path d="M440.787 160.182C440.726 160.226 440.644 160.285 440.55 160.359C440.331 160.529 440.039 160.772 439.747 161.064C439.456 161.355 439.163 161.697 438.943 162.065C438.722 162.432 438.573 162.828 438.573 163.227V169.365H431.71V163.227C431.71 162.852 431.851 162.474 432.066 162.115C432.28 161.758 432.567 161.422 432.856 161.134C433.144 160.846 433.433 160.606 433.65 160.438C433.758 160.354 433.847 160.287 433.91 160.242C433.942 160.22 433.967 160.202 433.984 160.191C433.989 160.187 433.993 160.184 433.996 160.182H440.787Z" fill="#AFAFAF" stroke="#979797" stroke-width="0.1"/>
<path d="M466.628 160.182C466.689 160.226 466.771 160.285 466.865 160.359C467.084 160.529 467.376 160.772 467.668 161.064C467.96 161.355 468.252 161.697 468.473 162.065C468.693 162.432 468.843 162.828 468.843 163.227V169.365H475.705V163.227C475.705 162.852 475.564 162.474 475.349 162.115C475.135 161.758 474.848 161.422 474.559 161.134C474.271 160.846 473.982 160.606 473.766 160.438C473.657 160.354 473.568 160.287 473.505 160.242C473.473 160.22 473.448 160.202 473.432 160.191C473.427 160.187 473.422 160.184 473.419 160.182H466.628Z" fill="#AFAFAF" stroke="#979797" stroke-width="0.1"/>
<path d="M81.2264 134.604H54.5378L58.0189 135.764L69.6227 150.849H81.2264V134.604Z" fill="url(#paint9_linear_129_682)"/>
<path opacity="0.9" d="M8.96224 169.415H67.6226C68.7272 169.415 69.6226 168.52 69.6226 167.415V151.49C69.6226 151.073 69.4924 150.667 69.2501 150.327L58.6171 135.441C58.2417 134.916 57.6355 134.604 56.9896 134.604H19.5952C18.9493 134.604 18.3432 134.916 17.9678 135.441L7.33477 150.327C7.09249 150.667 6.96224 151.073 6.96224 151.49V167.415C6.96224 168.52 7.85767 169.415 8.96224 169.415Z" fill="url(#paint10_linear_129_682)" stroke="#979797" stroke-width="0.1"/>
<path d="M72.6021 133.443H76.1901C76.4216 133.443 76.6234 133.603 76.675 133.829C78.1274 140.187 77.9222 145.802 76.6709 151.618C76.6216 151.847 76.4184 152.009 76.1842 152.009H72.5663C72.2465 152.009 72.0091 151.713 72.0753 151.401C73.3252 145.5 73.6367 139.979 72.1143 134.08C72.0316 133.759 72.2712 133.443 72.6021 133.443Z" fill="url(#paint11_linear_129_682)"/>
<path d="M66.7955 169.465H9.78961C9.34283 169.465 8.95596 169.776 8.8609 170.213L7.27496 177.496C7.14615 178.088 7.59764 178.648 8.20367 178.648H68.3814C68.9874 178.648 69.4389 178.088 69.3101 177.496L67.7242 170.213C67.6291 169.776 67.2423 169.465 66.7955 169.465Z" fill="url(#paint12_linear_129_682)" stroke="#979797" stroke-width="0.1"/>
<path d="M55.6981 130.111V134.104C55.6981 134.38 55.4743 134.604 55.1981 134.604H21.3868C21.1107 134.604 20.8868 134.38 20.8868 134.104V130.111C20.8868 130.014 20.915 129.919 20.968 129.838L22.2524 127.868C22.3447 127.727 22.5022 127.642 22.6712 127.642H53.9137C54.0827 127.642 54.2402 127.727 54.3325 127.868L55.6169 129.838C55.6699 129.919 55.6981 130.014 55.6981 130.111Z" fill="url(#paint13_linear_129_682)" stroke="#979797" stroke-width="0.1"/>
<rect x="20.8868" y="9.28302" width="34.8113" height="118.358" rx="1" fill="url(#paint14_linear_129_682)"/>
<path d="M34.8615 160.182V169.365H41.7238V160.182H34.8615Z" fill="#AFAFAF" stroke="#979797" stroke-width="0.1"/>
<path d="M51.2126 160.182C51.2741 160.226 51.3556 160.285 51.45 160.359C51.6686 160.529 51.9608 160.772 52.2527 161.064C52.5444 161.355 52.837 161.697 53.0574 162.065C53.2776 162.432 53.4275 162.828 53.4275 163.227V169.365H60.2898V163.227C60.2898 162.852 60.1492 162.474 59.9343 162.115C59.7196 161.758 59.4326 161.422 59.1443 161.134C58.8561 160.846 58.5668 160.606 58.3503 160.438C58.2423 160.354 58.1525 160.287 58.0896 160.242C58.0581 160.22 58.0331 160.202 58.0164 160.191C58.0114 160.187 58.0072 160.184 58.0037 160.182H51.2126Z" fill="#AFAFAF" stroke="#979797" stroke-width="0.1"/>
<path d="M25.3723 160.182C25.3108 160.226 25.2293 160.285 25.1349 160.359C24.9163 160.529 24.6241 160.772 24.3322 161.064C24.0405 161.355 23.7479 161.697 23.5275 162.065C23.3073 162.432 23.1574 162.828 23.1574 163.227V169.365H16.2951V163.227C16.2951 162.852 16.4357 162.474 16.6506 162.115C16.8653 161.758 17.1523 161.422 17.4406 161.134C17.7288 160.846 18.0181 160.606 18.2346 160.438C18.3426 160.354 18.4324 160.287 18.4953 160.242C18.5268 160.22 18.5518 160.202 18.5685 160.191C18.5735 160.187 18.5777 160.184 18.5812 160.182H25.3723Z" fill="#AFAFAF" stroke="#979797" stroke-width="0.1"/>
<path d="M412.436 133.443H394.923C394.692 133.443 394.49 133.603 394.439 133.829C392.986 140.187 393.191 145.802 394.443 151.618C394.492 151.847 394.695 152.009 394.929 152.009H412.472C412.791 152.009 413.029 151.713 412.962 151.401C411.713 145.5 411.401 139.979 412.923 134.08C413.006 133.759 412.767 133.443 412.436 133.443Z" fill="url(#paint15_linear_129_682)"/>
<path d="M79.5644 133.443H97.0765C97.3081 133.443 97.5099 133.603 97.5614 133.829C99.0139 140.187 98.8089 145.802 97.5575 151.618C97.5082 151.847 97.3051 152.009 97.0708 152.009H79.5285C79.2088 152.009 78.9713 151.713 79.0375 151.401C80.2874 145.5 80.599 139.979 79.0766 134.08C78.9939 133.759 79.2334 133.443 79.5644 133.443Z" fill="url(#paint16_linear_129_682)"/>
<path d="M103.258 48.9184L100.998 76.0434C100.974 76.3349 101.204 76.5849 101.496 76.5849H144.504C144.796 76.5849 145.026 76.3349 145.002 76.0434L142.742 48.9184C142.732 48.8005 142.681 48.69 142.597 48.6063L140.552 46.5615C140.458 46.4678 140.331 46.4151 140.199 46.4151H105.801C105.669 46.4151 105.542 46.4678 105.448 46.5615L103.403 48.6063C103.32 48.69 103.268 48.8005 103.258 48.9184Z" fill="url(#paint17_linear_129_682)"/>
<path d="M103.374 53.3774H110.136C110.191 53.3774 110.236 53.3326 110.236 53.2774V48.7773C110.236 48.7508 110.246 48.7253 110.265 48.7066L112.386 46.5858C112.449 46.5228 112.404 46.4151 112.315 46.4151H105.636C105.609 46.4151 105.584 46.4256 105.565 46.4444L103.303 48.7066C103.284 48.7253 103.274 48.7508 103.274 48.7773V53.2774C103.274 53.3326 103.318 53.3774 103.374 53.3774Z" fill="#FF3333"/>
<path d="M96.3113 83.0472V78.1504C96.3113 77.9142 96.4766 77.7103 96.7076 77.6613L101.736 76.5958C101.77 76.5885 101.804 76.5849 101.839 76.5849H144.183C144.227 76.5849 144.271 76.5908 144.314 76.6023L148.159 77.6452C148.377 77.7043 148.528 77.902 148.528 78.1277V83.0472C148.528 83.3233 148.304 83.5472 148.028 83.5472H96.8113C96.5351 83.5472 96.3113 83.3233 96.3113 83.0472Z" fill="url(#paint18_linear_129_682)"/>
<path d="M96.3113 134.104V129.207C96.3113 128.971 96.4766 128.767 96.7076 128.718L101.736 127.652C101.77 127.645 101.804 127.642 101.839 127.642H144.183C144.227 127.642 144.271 127.647 144.314 127.659L148.159 128.702C148.377 128.761 148.528 128.959 148.528 129.184V134.104C148.528 134.38 148.304 134.604 148.028 134.604H96.8113C96.5351 134.604 96.3113 134.38 96.3113 134.104Z" fill="url(#paint19_linear_129_682)"/>
<path d="M145.047 127.142V84.0472C145.047 83.771 144.823 83.5472 144.547 83.5472H99.1321C98.8559 83.5472 98.6321 83.771 98.6321 84.0472V127.142C98.6321 127.418 98.8559 127.642 99.1321 127.642H144.547C144.823 127.642 145.047 127.418 145.047 127.142Z" fill="url(#paint20_linear_129_682)"/>
<path d="M140.698 88.1887H147.762C148.104 88.1887 148.344 88.5266 148.238 88.8515C145.245 98.0111 145.241 103.539 148.247 113.059C148.349 113.383 148.109 113.717 147.77 113.717H140.714C140.49 113.717 140.292 113.564 140.232 113.348C137.428 103.176 137.314 97.5972 140.222 88.5369C140.288 88.3308 140.481 88.1887 140.698 88.1887Z" fill="url(#paint21_linear_129_682)"/>
<path d="M81.3171 85.8679H98.1321C98.4082 85.8679 98.6321 86.0918 98.6321 86.3679V121.34C98.6321 121.616 98.4082 121.84 98.1321 121.84H63.1604C62.8843 121.84 62.6604 121.616 62.6604 121.34V93.1767C62.6604 92.9683 62.7897 92.7817 62.9848 92.7085L81.1415 85.8998C81.1977 85.8787 81.2572 85.8679 81.3171 85.8679Z" fill="url(#paint22_linear_129_682)"/>
<path d="M56.1981 93.9906H62.1604C62.4365 93.9906 62.6604 94.2145 62.6604 94.4906V121.34C62.6604 121.616 62.4365 121.84 62.1604 121.84H56.1981C55.922 121.84 55.6981 121.616 55.6981 121.34V94.4906C55.6981 94.2145 55.922 93.9906 56.1981 93.9906Z" fill="url(#paint23_linear_129_682)"/>
<path d="M114.877 58.0189L112.586 60.3103C112.567 60.3291 112.557 60.3545 112.557 60.381V76.5849" stroke="#79A3B4" stroke-width="0.5"/>
<path d="M114.877 92.8302L112.568 97.1596C112.561 97.174 112.557 97.1902 112.557 97.2066V127.642" stroke="#79A3B4" stroke-width="0.5"/>
<path d="M123 58.0189V76.5849" stroke="#79A3B4" stroke-width="0.5"/>
<path d="M124.16 92.8302V127.642" stroke="#79A3B4" stroke-width="0.5"/>
<path d="M131.123 58.0189L133.414 60.3103C133.433 60.3291 133.443 60.3545 133.443 60.381V76.5849" stroke="#79A3B4" stroke-width="0.5"/>
<path d="M131.123 92.8302L133.432 97.1596C133.439 97.174 133.443 97.1902 133.443 97.2066V127.642" stroke="#79A3B4" stroke-width="0.5"/>
<path d="M149.689 88.2385C150.473 88.2386 151.151 88.5882 151.729 89.2258C152.307 89.8645 152.785 90.7915 153.163 91.9426C153.921 94.2452 154.28 97.4303 154.281 100.952C154.281 104.475 153.921 107.66 153.163 109.963C152.785 111.114 152.307 112.041 151.729 112.68C151.151 113.318 150.473 113.667 149.689 113.667C148.905 113.667 148.227 113.318 147.649 112.68C147.07 112.041 146.593 111.114 146.214 109.963C145.457 107.66 145.097 104.475 145.097 100.952C145.097 97.4303 145.457 94.2452 146.214 91.9426C146.593 90.7915 147.07 89.8645 147.649 89.2258C148.227 88.5882 148.905 88.2385 149.689 88.2385Z" fill="url(#paint24_linear_129_682)" stroke="#749EAF" stroke-width="0.1"/>
<rect x="18.566" width="39.4528" height="9.28302" rx="1" fill="#0C7FA9"/>
<rect x="436.302" y="9.28302" width="34.8113" height="118.358" rx="1" fill="url(#paint25_linear_129_682)"/>
<rect x="433.981" width="39.4528" height="9.28302" rx="1" fill="#0C7FA9"/>
<path d="M85.7954 70.4929H97.5442L93.628 90.0743H89.7117L85.7954 70.4929Z" fill="url(#paint26_linear_129_682)"/>
<path d="M115.167 88.1161V99.865L95.5861 95.9487V92.0324L115.167 88.1161Z" fill="url(#paint27_linear_129_682)"/>
<path d="M87.7535 92.0324V95.9487L68.1722 99.865V88.1161L87.7535 92.0324Z" fill="url(#paint28_linear_129_682)"/>
<path d="M89.7117 97.9069H93.628L97.5442 117.488H85.7954L89.7117 97.9069Z" fill="url(#paint29_linear_129_682)"/>
<circle cx="91.6698" cy="93.9906" r="3.91627" fill="url(#paint30_linear_129_682)"/>
<path d="M99.5658 94.1174C99.5307 98.4431 95.9956 101.921 91.6699 101.886C87.3443 101.851 83.8661 98.316 83.9012 93.9903C83.9363 89.6647 87.4714 86.1865 91.797 86.2216C96.1227 86.2567 99.6009 89.7917 99.5658 94.1174ZM88.2745 94.0258C88.259 95.9361 89.7951 97.4974 91.7054 97.5128C93.6158 97.5283 95.177 95.9923 95.1925 94.0819C95.208 92.1716 93.6719 90.6104 91.7615 90.5949C89.8512 90.5794 88.29 92.1154 88.2745 94.0258Z" fill="url(#paint31_linear_129_682)"/>
<path d="M123 93.9906C123 111.294 108.973 125.321 91.6698 125.321C74.3666 125.321 60.3396 111.294 60.3396 93.9906C60.3396 76.6874 74.3666 62.6604 91.6698 62.6604C108.973 62.6604 123 76.6874 123 93.9906ZM69.6935 93.9906C69.6935 106.128 79.5326 115.967 91.6698 115.967C103.807 115.967 113.646 106.128 113.646 93.9906C113.646 81.8534 103.807 72.0143 91.6698 72.0143C79.5326 72.0143 69.6935 81.8534 69.6935 93.9906Z" fill="url(#paint32_linear_129_682)"/>
<defs>
<linearGradient id="paint0_linear_129_682" x1="427.019" y1="134.604" x2="433.981" y2="134.604" gradientUnits="userSpaceOnUse">
<stop stop-color="#CDCDCD"/>
<stop offset="1" stop-color="#AFAFAF"/>
</linearGradient>
<linearGradient id="paint1_linear_129_682" x1="422.377" y1="153.17" x2="485.038" y2="153.17" gradientUnits="userSpaceOnUse">
<stop stop-color="#AFAFAF"/>
<stop offset="0.504808" stop-color="#CDCDCD"/>
<stop offset="1" stop-color="#AFAFAF"/>
</linearGradient>
<linearGradient id="paint2_linear_129_682" x1="417.184" y1="133.443" x2="417.184" y2="152.009" gradientUnits="userSpaceOnUse">
<stop stop-color="#AFAFAF"/>
<stop offset="0.5" stop-color="#CDCDCD"/>
<stop offset="1" stop-color="#AFAFAF"/>
</linearGradient>
<linearGradient id="paint3_linear_129_682" x1="422.377" y1="174.057" x2="485.038" y2="174.057" gradientUnits="userSpaceOnUse">
<stop offset="0.361111" stop-color="#CDCDCD"/>
<stop offset="1" stop-color="#AFAFAF"/>
</linearGradient>
<linearGradient id="paint4_linear_129_682" x1="245.982" y1="134.604" x2="245.982" y2="150.849" gradientUnits="userSpaceOnUse">
<stop stop-color="#037AA6"/>
<stop offset="0.5" stop-color="#037AA6" stop-opacity="0.7"/>
<stop offset="1" stop-color="#037AA6"/>
</linearGradient>
<linearGradient id="paint5_linear_129_682" x1="436.302" y1="131.123" x2="471.113" y2="131.123" gradientUnits="userSpaceOnUse">
<stop stop-color="#CDCDCD"/>
<stop offset="1" stop-color="#AFAFAF"/>
</linearGradient>
<linearGradient id="paint6_linear_129_682" x1="246" y1="183.34" x2="246" y2="211.189" gradientUnits="userSpaceOnUse">
<stop stop-color="#3E99BB"/>
<stop offset="0.5" stop-color="#47BDE9"/>
<stop offset="1" stop-color="#3E99BB"/>
</linearGradient>
<linearGradient id="paint7_linear_129_682" x1="246" y1="178.698" x2="246" y2="183.34" gradientUnits="userSpaceOnUse">
<stop stop-color="#047AA6"/>
<stop offset="1" stop-color="#006D96"/>
</linearGradient>
<linearGradient id="paint8_linear_129_682" x1="246" y1="215.83" x2="246" y2="211.189" gradientUnits="userSpaceOnUse">
<stop stop-color="#047AA6"/>
<stop offset="1" stop-color="#006D96"/>
</linearGradient>
<linearGradient id="paint9_linear_129_682" x1="64.9812" y1="134.604" x2="58.0189" y2="134.604" gradientUnits="userSpaceOnUse">
<stop stop-color="#CDCDCD"/>
<stop offset="1" stop-color="#AFAFAF"/>
</linearGradient>
<linearGradient id="paint10_linear_129_682" x1="69.6226" y1="153.17" x2="6.96224" y2="153.17" gradientUnits="userSpaceOnUse">
<stop stop-color="#AFAFAF"/>
<stop offset="0.504808" stop-color="#CDCDCD"/>
<stop offset="1" stop-color="#AFAFAF"/>
</linearGradient>
<linearGradient id="paint11_linear_129_682" x1="74.8159" y1="133.443" x2="74.8159" y2="152.009" gradientUnits="userSpaceOnUse">
<stop stop-color="#AFAFAF"/>
<stop offset="0.5" stop-color="#CDCDCD"/>
<stop offset="1" stop-color="#AFAFAF"/>
</linearGradient>
<linearGradient id="paint12_linear_129_682" x1="69.6226" y1="174.057" x2="6.96224" y2="174.057" gradientUnits="userSpaceOnUse">
<stop offset="0.361111" stop-color="#CDCDCD"/>
<stop offset="1" stop-color="#AFAFAF"/>
</linearGradient>
<linearGradient id="paint13_linear_129_682" x1="55.6981" y1="131.123" x2="20.8868" y2="131.123" gradientUnits="userSpaceOnUse">
<stop stop-color="#CDCDCD"/>
<stop offset="1" stop-color="#AFAFAF"/>
</linearGradient>
<linearGradient id="paint14_linear_129_682" x1="55.6981" y1="68.4623" x2="20.8868" y2="68.4623" gradientUnits="userSpaceOnUse">
<stop stop-color="#037AA6"/>
<stop offset="0.5" stop-color="#037AA6" stop-opacity="0.7"/>
<stop offset="1" stop-color="#037AA6"/>
</linearGradient>
<linearGradient id="paint15_linear_129_682" x1="403.26" y1="133.443" x2="403.26" y2="152.009" gradientUnits="userSpaceOnUse">
<stop stop-color="#DD8635"/>
<stop offset="0.5" stop-color="#FFD36D"/>
<stop offset="1" stop-color="#DD8635"/>
</linearGradient>
<linearGradient id="paint16_linear_129_682" x1="88.7402" y1="133.443" x2="88.7402" y2="152.009" gradientUnits="userSpaceOnUse">
<stop stop-color="#DD8635"/>
<stop offset="0.5" stop-color="#FFD36D"/>
<stop offset="1" stop-color="#DD8635"/>
</linearGradient>
<linearGradient id="paint17_linear_129_682" x1="102.113" y1="62.6604" x2="143.887" y2="62.6604" gradientUnits="userSpaceOnUse">
<stop stop-color="#749EAF"/>
<stop offset="0.5" stop-color="#B5DAE9"/>
<stop offset="1" stop-color="#749EAF"/>
</linearGradient>
<linearGradient id="paint18_linear_129_682" x1="121.84" y1="83.5472" x2="121.84" y2="76.5849" gradientUnits="userSpaceOnUse">
<stop stop-color="#749EAF"/>
<stop offset="0.5" stop-color="#A2CEDF"/>
<stop offset="1" stop-color="#749EAF"/>
</linearGradient>
<linearGradient id="paint19_linear_129_682" x1="121.84" y1="134.604" x2="121.84" y2="127.642" gradientUnits="userSpaceOnUse">
<stop stop-color="#749EAF"/>
<stop offset="0.5" stop-color="#A2CEDF"/>
<stop offset="1" stop-color="#749EAF"/>
</linearGradient>
<linearGradient id="paint20_linear_129_682" x1="98.6321" y1="106.755" x2="145.047" y2="106.755" gradientUnits="userSpaceOnUse">
<stop stop-color="#749EAF"/>
<stop offset="0.5" stop-color="#A1D9EF"/>
<stop offset="1" stop-color="#749EAF"/>
</linearGradient>
<linearGradient id="paint21_linear_129_682" x1="138.014" y1="102.113" x2="146.137" y2="102.113" gradientUnits="userSpaceOnUse">
<stop stop-color="#749EAF"/>
<stop offset="0.5" stop-color="#8FB7C8"/>
<stop offset="1" stop-color="#749EAF"/>
</linearGradient>
<linearGradient id="paint22_linear_129_682" x1="63.8208" y1="104.434" x2="98.6321" y2="104.434" gradientUnits="userSpaceOnUse">
<stop stop-color="#749EAF"/>
<stop offset="0.5" stop-color="#A1D6EB"/>
<stop offset="1" stop-color="#749EAF"/>
</linearGradient>
<linearGradient id="paint23_linear_129_682" x1="55.6981" y1="109.076" x2="62.6604" y2="109.076" gradientUnits="userSpaceOnUse">
<stop stop-color="#749EAF"/>
<stop offset="0.5" stop-color="#9ACEE3"/>
<stop offset="1" stop-color="#749EAF"/>
</linearGradient>
<linearGradient id="paint24_linear_129_682" x1="145.047" y1="102.113" x2="154.33" y2="102.113" gradientUnits="userSpaceOnUse">
<stop stop-color="#749EAF"/>
<stop offset="0.5" stop-color="#B3D6E4"/>
<stop offset="1" stop-color="#749EAF"/>
</linearGradient>
<linearGradient id="paint25_linear_129_682" x1="471.113" y1="68.4623" x2="436.302" y2="68.4623" gradientUnits="userSpaceOnUse">
<stop stop-color="#037AA6"/>
<stop offset="0.5" stop-color="#037AA6" stop-opacity="0.7"/>
<stop offset="1" stop-color="#037AA6"/>
</linearGradient>
<linearGradient id="paint26_linear_129_682" x1="95.5861" y1="80.2836" x2="87.7535" y2="80.2836" gradientUnits="userSpaceOnUse">
<stop stop-color="#1E2537"/>
<stop offset="0.5" stop-color="#4A5B84"/>
<stop offset="1" stop-color="#1E2537"/>
</linearGradient>
<linearGradient id="paint27_linear_129_682" x1="105.377" y1="88.1161" x2="105.377" y2="99.865" gradientUnits="userSpaceOnUse">
<stop stop-color="#1E2537"/>
<stop offset="0.5" stop-color="#4A5B84"/>
<stop offset="1" stop-color="#1E2537"/>
</linearGradient>
<linearGradient id="paint28_linear_129_682" x1="68.1722" y1="93.9906" x2="87.7535" y2="93.9906" gradientUnits="userSpaceOnUse">
<stop stop-color="#1E2537"/>
<stop offset="0.5" stop-color="#4A5B84"/>
<stop offset="1" stop-color="#1E2537"/>
</linearGradient>
<linearGradient id="paint29_linear_129_682" x1="95.5861" y1="107.698" x2="87.7535" y2="107.698" gradientUnits="userSpaceOnUse">
<stop stop-color="#1E2537"/>
<stop offset="0.5" stop-color="#4A5B84"/>
<stop offset="1" stop-color="#1E2537"/>
</linearGradient>
<linearGradient id="paint30_linear_129_682" x1="87.7535" y1="93.9906" x2="95.5861" y2="93.9906" gradientUnits="userSpaceOnUse">
<stop stop-color="#0378A4"/>
<stop offset="0.5" stop-color="#1EB0E6"/>
<stop offset="1" stop-color="#0378A4"/>
</linearGradient>
<linearGradient id="paint31_linear_129_682" x1="83.8982" y1="94.3633" x2="99.5627" y2="94.4904" gradientUnits="userSpaceOnUse">
<stop stop-color="#171D2C"/>
<stop offset="0.495192" stop-color="#4B5878"/>
<stop offset="1" stop-color="#171D2C"/>
</linearGradient>
<linearGradient id="paint32_linear_129_682" x1="60.3396" y1="95.4825" x2="123" y2="95.4825" gradientUnits="userSpaceOnUse">
<stop stop-color="#171D2C"/>
<stop offset="0.495192" stop-color="#4B5878"/>
<stop offset="1" stop-color="#171D2C"/>
</linearGradient>
</defs>
</svg>
