<svg width="88" height="155" viewBox="0 0 88 155" fill="none" xmlns="http://www.w3.org/2000/svg">
<path d="M44.1281 151.599C52.5947 151.601 60.8528 148.973 67.761 144.078C74.6692 139.183 79.8864 132.263 82.6917 124.275C85.497 116.286 85.7518 107.624 83.4208 99.4842C81.0899 91.3447 76.2883 84.1302 69.6797 78.8377C68.6915 78.0856 67.8852 77.1207 67.3206 76.0146C66.756 74.9085 66.4475 73.6895 66.418 72.448V25.2899C66.418 19.3783 64.0696 13.7087 59.8894 9.52857C55.7092 5.3484 50.0397 3 44.1281 3C38.2164 3 32.5469 5.3484 28.3667 9.52857C24.1865 13.7087 21.8381 19.3783 21.8381 25.2899V72.4554C21.8381 74.9667 20.5379 77.27 18.5764 78.8452C11.9707 84.1385 7.17189 91.3524 4.84276 99.4905C2.51363 107.629 2.76918 116.289 5.57411 124.276C8.37904 132.262 13.5949 139.181 20.5012 144.075C27.4074 148.97 35.6632 151.599 44.1281 151.599Z" stroke="white" stroke-width="5"/>
<path d="M62.7024 110.743C62.7024 115.669 60.7454 120.394 57.2619 123.877C53.7784 127.361 49.0538 129.318 44.1274 129.318C39.201 129.318 34.4764 127.361 30.993 123.877C27.5095 120.394 25.5525 115.669 25.5525 110.743C25.5525 105.817 27.5095 101.092 30.993 97.6084C34.4764 94.125 39.201 92.168 44.1274 92.168C49.0538 92.168 53.7784 94.125 57.2619 97.6084C60.7454 101.092 62.7024 105.817 62.7024 110.743Z" stroke="white" stroke-width="5"/>
<path d="M44.1282 92.1666V25.2969" stroke="white" stroke-width="5" stroke-linecap="round"/>
</svg>
