<svg width="128" height="154" viewBox="0 0 128 154" fill="none" xmlns="http://www.w3.org/2000/svg">
<path d="M84 123.2C87.3333 123.2 90.168 122.076 92.504 119.827C94.84 117.579 96.0053 114.853 96 111.65C96 108.442 94.832 105.713 92.496 103.465C90.16 101.216 87.328 100.095 84 100.1C80.6667 100.1 77.832 101.224 75.496 103.473C73.16 105.721 71.9947 108.447 72 111.65C72 114.858 73.168 117.587 75.504 119.835C77.84 122.083 80.672 123.205 84 123.2ZM43.6 122.815L95.6 72.765L84.4 61.985L32.4 112.035L43.6 122.815ZM44 84.7C47.3333 84.7 50.168 83.5758 52.504 81.3274C54.84 79.079 56.0053 76.3532 56 73.15C56 69.9417 54.832 67.2133 52.496 64.9649C50.16 62.7165 47.328 61.5949 44 61.6C40.6667 61.6 37.832 62.7242 35.496 64.9726C33.16 67.221 31.9947 69.9468 32 73.15C32 76.3583 33.168 79.0867 35.504 81.3351C37.84 83.5835 40.672 84.7051 44 84.7ZM64 154C45.7333 154 30.4987 147.968 18.296 135.905C6.09334 123.842 -0.00532984 108.827 3.49497e-06 90.86C3.49497e-06 78.0267 5.30134 64.0691 15.904 48.9874C26.5067 33.9057 42.5387 17.5765 64 0C85.4667 17.5817 101.501 33.9134 112.104 48.9951C122.707 64.0768 128.005 78.0318 128 90.86C128 108.827 121.899 123.842 109.696 135.905C97.4933 147.968 82.2613 154 64 154ZM64 138.6C77.8667 138.6 89.3333 134.075 98.4 125.025C107.467 115.975 112 104.587 112 90.86C112 81.4917 107.965 70.9042 99.896 59.0975C91.8267 47.2908 79.8613 34.3933 64 20.405C48.1333 34.3933 36.168 47.2908 28.104 59.0975C20.04 70.9042 16.0053 81.4917 16 90.86C16 104.592 20.5333 115.983 29.6 125.033C38.6667 134.083 50.1333 138.605 64 138.6Z" fill="white"/>
</svg>
